<svg width="32" height="32" viewBox="0 0 32 32" fill="none" xmlns="http://www.w3.org/2000/svg">
<path d="M22.0168 10.5822C21.0208 10.8779 20.2699 11.5467 19.7202 12.2732C19.6021 12.4291 19.356 12.3119 19.4029 12.1208C20.4557 7.7916 19.0648 4.1934 14.7293 2.4223C14.5094 2.3322 14.2804 2.5295 14.3381 2.7603C16.3103 10.6787 8.0151 10.0308 9.0633 19.0274C9.0814 19.1815 8.9083 19.2869 8.7821 19.1968C8.3891 18.9147 7.9502 13.3261 7.6491 12.9123C7.5618 12.7907 7.3697 12.825 7.3291 12.9701C7.0894 13.8371 6.9758 14.6538 6.9758 15.465C6.9758 18.6197 8.5973 21.3968 11.0518 23.0066C11.1924 23.0986 11.3726 22.967 11.3248 22.8056C11.1975 22.3819 11.1275 21.9349 11.122 21.4725C11.122 21.1886 11.1401 20.8984 11.1844 20.628C11.287 19.9483 11.5232 19.3011 11.9198 18.7117C13.2799 16.8301 16.0066 14.9779 15.5712 12.3C15.5433 12.1306 15.7433 12.0189 15.8696 12.135C17.7904 13.8501 18.1707 16.2107 17.8552 18.328C17.8282 18.5118 18.0589 18.6101 18.1752 18.4659C18.4691 18.0981 18.8278 17.7754 19.2181 17.533C19.316 17.4725 19.4453 17.5185 19.4822 17.6267C19.7002 18.2586 20.0221 18.8517 20.3267 19.4446C19.6808 20.1577 19.2846 21.0917 19.2542 22.1534C19.2388 22.5725 19.1693 22.9781 19.0531 23.3638C19.0035 23.527 19.1819 23.663 19.3253 23.5693C21.7815 21.9595 23.404 19.1824 23.404 15.926C23.404 14.829 23.212 13.7736 22.8486 12.766C22.0871 10.6522 20.1546 9.1449 20.643 6.3904C20.6666 6.2589 20.5448 6.1444 20.4168 6.1822C20.9128 6.5822 21.5208 9.5822 22.0168 10.5822Z" fill="#FA4500"/>
</svg>
